<svg width="56" height="56" viewBox="0 0 56 56" fill="none" xmlns="http://www.w3.org/2000/svg">
<path d="M28 56C12.6 56 0 43.4 0 28C0 12.6 12.6 0 28 0C43.4 0 56 12.6 56 28C56 43.4 43.4 56 28 56Z" fill="black"/>
<path d="M33.5923 28.0199C33.5679 25.3949 35.8102 24.1347 35.9116 24.0732C34.6499 22.2888 32.6862 22.0443 31.9856 22.0156C30.3154 21.8522 28.725 22.966 27.8784 22.966C27.0318 22.966 25.7227 22.0391 24.3378 22.0653C22.5148 22.0914 20.8364 23.0888 19.8979 24.6654C18.0059 27.8382 19.4151 32.5404 21.257 35.1158C22.1591 36.3747 23.2329 37.7931 24.6448 37.7408C26.0053 37.6885 26.5192 36.8911 28.161 36.8911C29.8029 36.8911 30.2654 37.7408 31.703 37.7159C33.1649 37.6885 34.0927 36.4296 34.988 35.1668C36.0212 33.7052 36.4485 32.2908 36.4729 32.2162C36.4404 32.2032 33.622 31.1587 33.5923 28.0199Z" fill="white"/>
<path d="M30.8912 20.3126C31.6404 19.4354 32.1462 18.2157 32.0069 17C30.9276 17.0419 29.6213 17.6955 28.8463 18.5727C28.1526 19.3479 27.544 20.5898 27.7089 21.7808C28.9126 21.871 30.1419 21.1885 30.8912 20.3126Z" fill="white"/>
</svg>
