<svg width="60" height="50" viewBox="0 0 60 50" fill="none" xmlns="http://www.w3.org/2000/svg">
<path d="M30.0001 48L25 35H35L30.0001 48Z" fill="#6428D4" stroke="#6428D4" stroke-width="4" stroke-linecap="round" stroke-linejoin="round"/>
<rect width="60" height="36" rx="8" fill="#6428D4"/>
<path d="M13.6643 12.16C16.2723 12.16 18.3043 13.056 18.3043 15.872C18.3043 18.576 16.2723 19.792 13.7283 19.792H12.1443V24H9.77631V12.16H13.6643ZM13.5683 17.92C15.1843 17.92 15.9843 17.232 15.9843 15.872C15.9843 14.48 15.1363 14.032 13.4883 14.032H12.1443V17.92H13.5683ZM22.8162 12.16V24H20.4482V12.16H22.8162ZM30.5614 24.224C27.5534 24.224 25.1374 22.08 25.1374 18.128C25.1374 14.224 27.6494 11.936 30.6414 11.936C32.1774 11.936 33.3454 12.64 34.1134 13.456L32.8654 14.96C32.2734 14.384 31.5854 13.968 30.6894 13.968C28.8974 13.968 27.5534 15.504 27.5534 18.048C27.5534 20.624 28.7694 22.176 30.6414 22.176C31.6654 22.176 32.4494 21.696 33.0894 21.008L34.3374 22.48C33.3614 23.648 32.1134 24.224 30.5614 24.224ZM38.6131 12.16V17.296H38.6611L42.5811 12.16H45.1891L41.5731 16.816L45.8291 24H43.2211L40.1651 18.688L38.6131 20.672V24H36.2451V12.16H38.6131ZM47.9498 20.608L47.6138 14.064L47.5338 11.84H49.9018L49.8218 14.064L49.4858 20.608H47.9498ZM47.5658 24.224V21.952H49.9018V24.224H47.5658Z" fill="white"/>
</svg>
