<svg width="56" height="56" viewBox="0 0 56 56" fill="none" xmlns="http://www.w3.org/2000/svg">
<path d="M28 55.5C12.8761 55.5 0.5 43.1239 0.5 28C0.5 12.8761 12.8761 0.5 28 0.5C43.1239 0.5 55.5 12.8761 55.5 28C55.5 43.1239 43.1239 55.5 28 55.5Z" fill="#FEFFFE" stroke="#CCCCCC"/>
<path d="M38.56 28.25C38.56 27.47 38.49 26.72 38.36 26H28V30.255H33.92C33.665 31.63 32.89 32.795 31.725 33.575V36.335H35.28C37.36 34.42 38.56 31.6 38.56 28.25Z" fill="#4285F4"/>
<path d="M28 39C30.97 39 33.46 38.015 35.28 36.335L31.725 33.575C30.74 34.235 29.48 34.625 28 34.625C25.135 34.625 22.71 32.69 21.845 30.09H18.17V32.94C19.98 36.535 23.7 39 28 39Z" fill="#34A853"/>
<path d="M21.845 30.0901C21.625 29.4301 21.5 28.7251 21.5 28.0001C21.5 27.2751 21.625 26.5701 21.845 25.9101V23.0601H18.17C17.4 24.5929 16.9993 26.2847 17 28.0001C17 29.7751 17.425 31.4551 18.17 32.9401L21.845 30.0901Z" fill="#FBBC05"/>
<path d="M28 21.375C29.615 21.375 31.065 21.93 32.205 23.02L35.36 19.865C33.455 18.09 30.965 17 28 17C23.7 17 19.98 19.465 18.17 23.06L21.845 25.91C22.71 23.31 25.135 21.375 28 21.375Z" fill="#EA4335"/>
</svg>
