<svg width="56" height="56" viewBox="0 0 56 56" fill="none" xmlns="http://www.w3.org/2000/svg">
<path d="M28 56C12.6 56 0 43.4 0 28C0 12.6 12.6 0 28 0C43.4 0 56 12.6 56 28C56 43.4 43.4 56 28 56Z" fill="#FDE500"/>
<path d="M28 18C21.9248 18 17 21.8254 17 26.5442C17 29.595 19.0589 32.2719 22.156 33.7835C21.9875 34.356 21.0733 37.4663 21.0369 37.7106C21.0369 37.7106 21.015 37.8942 21.1357 37.9642C21.2564 38.0343 21.3983 37.9799 21.3983 37.9799C21.7444 37.9322 25.4115 35.3946 26.0462 34.954C26.6803 35.0424 27.3332 35.0884 28 35.0884C34.0752 35.0884 39 31.2631 39 26.5442C39 21.8254 34.0752 18 28 18Z" fill="black"/>
</svg>
