<svg width="184" height="39" viewBox="0 0 184 39" fill="none" xmlns="http://www.w3.org/2000/svg">
<g clip-path="url(#clip0_2_273)">
<path d="M44 4.63581C44 3.35648 44.445 2.26598 45.335 1.35959C46.225 0.453196 47.2958 0 48.552 0C49.8082 0 50.879 0.453196 51.769 1.35959C52.659 2.26598 53.104 3.35648 53.104 4.63581C53.104 5.91515 52.659 7.00565 51.769 7.91204C50.879 8.81843 49.8082 9.27163 48.552 9.27163C47.2958 9.27163 46.225 8.81843 45.335 7.91204C44.445 7.00565 44 5.91515 44 4.63581ZM44.6304 12.7886H52.4783V38.6821H44.6304V12.7886Z" fill="#6F14DC"/>
<path d="M66.8674 13.1066H59.0195V39.0001H66.8674V13.1066Z" fill="#6F14DC"/>
<path d="M81.2463 12.7888H73.3984V38.6823H81.2463V12.7888Z" fill="#6F14DC"/>
<path d="M86.8965 4.63581C86.8965 3.35648 87.3415 2.26598 88.2315 1.35959C89.1215 0.453196 90.1923 0 91.4485 0C92.7047 0 93.7755 0.453196 94.6655 1.35959C95.5555 2.26598 96.0005 3.35648 96.0005 4.63581C96.0005 5.91515 95.5555 7.00565 94.6655 7.91204C93.7755 8.81843 92.7047 9.27163 91.4485 9.27163C90.1923 9.27163 89.1215 8.81843 88.2315 7.91204C87.3415 7.00565 86.8965 5.91515 86.8965 4.63581ZM87.5223 12.7886H95.3701V38.6821H87.5223V12.7886Z" fill="#6F14DC"/>
<path d="M0 12.6486H7.53973V16.2278H7.6418C7.88772 15.7233 8.2357 15.2141 8.69041 14.7096C9.14511 14.2052 9.68333 13.7536 10.3143 13.3548C10.9407 12.956 11.6553 12.6294 12.4626 12.3795C13.2653 12.1297 14.1376 12 15.0795 12C16.8612 12 18.4387 12.3795 19.8167 13.1386C21.1948 13.8977 22.2341 15.0891 22.9301 16.7178C23.8395 15.0171 24.9345 13.8064 26.229 13.0858C27.5235 12.3603 29.1103 12 30.9941 12C32.7062 12 34.1445 12.2979 35.3138 12.8936C36.483 13.4893 37.4063 14.3012 38.0884 15.3342C38.7704 16.3623 39.2576 17.5778 39.5546 18.9662C39.8515 20.3594 40 21.8488 40 23.439V39H32.1494V23.6504C32.1494 22.4205 31.8942 21.3635 31.3885 20.4795C30.8827 19.5907 29.9826 19.1488 28.6927 19.1488C27.7833 19.1488 27.027 19.3025 26.4146 19.61C25.8021 19.9174 25.3149 20.3402 24.9484 20.8831C24.5818 21.426 24.3174 22.0601 24.1643 22.7808C24.0065 23.5062 23.9276 24.2653 23.9276 25.058V38.9904H16.077V25.058C16.077 24.5872 16.0585 24.0107 16.026 23.3237C15.9889 22.6367 15.8682 21.9881 15.6594 21.3731C15.4506 20.7582 15.1073 20.2345 14.6387 19.7973C14.17 19.3649 13.4787 19.1488 12.5693 19.1488C11.5578 19.1488 10.7366 19.3361 10.1102 19.7205C9.48382 20.1 9.00128 20.6093 8.67185 21.2386C8.33778 21.8728 8.12435 22.5838 8.01763 23.3813C7.91092 24.1788 7.85988 25.01 7.85988 25.8747V38.9952H0V12.6486Z" fill="#FFE600"/>
<path d="M100 25.5C100 23.4548 100.376 21.602 101.128 19.9415C101.88 18.2809 102.908 16.8643 104.216 15.6776C105.52 14.4955 107.062 13.5855 108.832 12.9522C110.603 12.319 112.492 12 114.495 12C116.499 12 118.388 12.319 120.163 12.9522C121.933 13.5855 123.475 14.4955 124.784 15.6776C126.088 16.8596 127.12 18.2809 127.872 19.9415C128.624 21.602 129 23.4548 129 25.5C129 27.5499 128.624 29.4027 127.872 31.0585C127.12 32.7191 126.092 34.1404 124.784 35.3224C123.475 36.5045 121.938 37.4145 120.163 38.0478C118.393 38.681 116.503 39 114.495 39C112.487 39 110.603 38.681 108.832 38.0478C107.062 37.4145 105.52 36.5045 104.216 35.3224C102.908 34.1404 101.88 32.7191 101.128 31.0585C100.376 29.398 100 27.5452 100 25.5ZM108.057 25.5C108.057 27.442 108.618 29.0134 109.746 30.2142C110.874 31.415 112.458 32.0155 114.5 32.0155C116.542 32.0155 118.126 31.415 119.254 30.2142C120.382 29.0134 120.948 27.442 120.948 25.5C120.948 23.558 120.382 21.9913 119.254 20.7905C118.126 19.5943 116.542 18.9892 114.5 18.9892C112.458 18.9892 110.874 19.5896 109.746 20.7905C108.618 21.9866 108.057 23.558 108.057 25.5Z" fill="#FFE600"/>
<path d="M133.005 12.6486H140.388V16.2278H140.488C140.729 15.7233 141.07 15.2141 141.515 14.7096C141.96 14.2052 142.487 13.7536 143.105 13.3548C143.719 12.956 144.418 12.6294 145.209 12.3795C145.995 12.1297 146.849 12 147.772 12C149.721 12 151.293 12.3171 152.488 12.9464C153.683 13.5806 154.615 14.455 155.282 15.5744C155.946 16.6938 156.4 18.0149 156.641 19.5331C156.877 21.0512 157 22.6943 157 24.4671V38.9952H149.307V26.0909C149.307 25.3318 149.285 24.5439 149.23 23.732C149.18 22.9201 149.026 22.1706 148.767 21.4836C148.508 20.7966 148.117 20.2345 147.585 19.8021C147.054 19.3698 146.295 19.1536 145.304 19.1536C144.314 19.1536 143.51 19.3409 142.896 19.7253C142.283 20.1048 141.81 20.6141 141.488 21.2434C141.161 21.8776 140.952 22.5886 140.847 23.3861C140.743 24.1836 140.693 25.0148 140.693 25.8795V39H133V12.6486H133.005Z" fill="#FFE600"/>
<path d="M161 30.9734L174.418 19.4194H161.316V13H183.684V20.7042L169.624 32.5806H184V39H161V30.9734Z" fill="#FFE600"/>
</g>
<defs>
<clipPath id="clip0_2_273">
<rect width="184" height="39" fill="white"/>
</clipPath>
</defs>
</svg>
